<svg id="svg" version="1.1" width="1000" height="1000" xmlns="http://www.w3.org/2000/svg" xmlns:xlink="http://www.w3.org/1999/xlink" style="display: block;"><g id="svgg"><path id="path0" d="M254.029 141.054 C 252.165 143.424,253.652 146.800,256.560 146.800 C 259.680 146.800,261.284 143.218,259.170 140.968 C 257.843 139.556,255.173 139.600,254.029 141.054 M287.600 144.101 C 284.418 145.762,285.685 150.800,289.285 150.800 C 290.890 150.800,292.800 148.872,292.800 147.253 C 292.800 144.774,289.797 142.954,287.600 144.101 M107.435 277.143 C 107.346 277.288,107.150 278.062,106.999 278.864 C 106.740 280.244,106.566 280.384,103.763 281.454 C 100.313 282.771,100.404 282.414,102.363 286.953 L 103.896 290.506 103.313 292.753 C 102.993 293.989,101.479 299.575,99.950 305.167 C 97.780 313.107,97.283 315.408,97.685 315.669 C 98.813 316.401,104.407 317.957,107.576 318.421 C 123.472 320.745,137.318 313.531,139.612 301.729 C 142.500 286.876,133.871 277.337,118.261 278.126 C 114.246 278.330,112.895 278.243,110.499 277.626 C 108.904 277.215,107.525 276.998,107.435 277.143 M148.638 278.865 C 146.939 284.866,138.400 317.122,138.400 317.538 C 138.400 317.899,139.883 317.993,144.240 317.911 L 150.080 317.800 151.364 314.400 C 153.030 309.992,154.137 308.300,157.228 305.438 C 160.359 302.539,160.344 302.483,158.617 310.379 C 157.838 313.942,157.200 317.118,157.200 317.438 C 157.200 317.928,158.227 318.002,163.675 317.910 L 170.149 317.800 170.862 314.600 C 171.827 310.268,171.810 310.000,170.573 310.000 C 169.781 310.000,169.595 309.840,169.758 309.300 C 170.827 305.775,173.599 291.847,173.272 291.645 C 169.554 289.347,164.005 290.029,158.974 293.403 C 157.558 294.352,156.400 295.057,156.400 294.969 C 156.400 294.882,157.310 291.457,158.422 287.360 C 159.533 283.262,160.388 279.862,160.322 279.804 C 160.255 279.747,157.982 279.126,155.272 278.426 C 152.561 277.726,150.096 277.058,149.793 276.942 C 149.406 276.793,149.063 277.364,148.638 278.865 M216.643 277.500 C 216.162 279.093,206.000 317.530,206.000 317.755 C 206.000 317.890,208.573 318.000,211.718 318.000 L 217.437 318.000 218.600 313.600 C 220.001 308.299,219.711 308.326,222.400 313.250 C 223.610 315.465,224.909 317.794,225.286 318.426 L 225.972 319.573 230.886 316.990 C 233.760 315.479,235.745 314.199,235.668 313.906 C 235.595 313.631,234.200 311.190,232.568 308.481 C 230.935 305.773,229.600 303.500,229.600 303.430 C 229.600 303.360,231.760 302.011,234.400 300.433 C 240.020 297.072,239.779 297.766,236.900 293.232 C 234.145 288.894,235.184 288.947,228.823 292.816 C 225.262 294.982,223.610 295.798,223.762 295.316 C 224.799 292.039,228.010 279.877,227.874 279.741 C 227.719 279.586,217.448 276.800,217.030 276.800 C 216.933 276.800,216.759 277.115,216.643 277.500 M121.659 288.065 C 130.041 290.576,128.889 303.690,119.885 308.260 C 117.746 309.346,112.734 310.064,112.292 309.348 C 112.118 309.068,117.027 290.070,117.779 288.110 C 118.023 287.474,119.626 287.456,121.659 288.065 M196.637 290.546 L 196.380 291.915 194.490 291.203 C 184.506 287.443,174.532 293.632,174.068 303.876 C 173.607 314.070,179.486 317.982,195.285 317.994 L 203.169 318.000 203.573 316.500 C 203.796 315.675,204.251 314.100,204.584 313.000 C 205.379 310.380,205.356 310.000,204.400 310.000 C 203.376 310.000,203.266 310.692,205.805 301.200 C 207.011 296.690,207.999 292.798,207.999 292.551 C 208.000 292.305,205.795 291.528,203.100 290.826 C 200.405 290.124,197.906 289.465,197.547 289.363 C 197.063 289.224,196.827 289.530,196.637 290.546 M260.984 290.545 L 260.719 291.956 258.660 291.113 C 246.734 286.230,233.871 298.936,239.367 310.169 C 242.301 316.165,247.015 317.985,259.645 317.994 L 267.491 318.000 268.545 314.284 C 269.808 309.835,269.798 310.000,268.800 310.000 C 267.736 310.000,267.690 310.300,270.200 300.946 C 271.410 296.438,272.400 292.609,272.400 292.438 C 272.400 292.266,270.105 291.529,267.300 290.800 C 264.495 290.071,261.986 289.398,261.724 289.304 C 261.441 289.202,261.142 289.703,260.984 290.545 M192.086 298.817 C 194.215 299.409,194.231 299.557,192.749 305.073 L 191.405 310.073 190.060 309.855 C 184.804 309.002,183.955 301.586,188.828 299.101 C 190.442 298.278,190.215 298.298,192.086 298.817 M257.726 299.275 C 258.552 299.708,258.547 299.745,256.878 305.809 C 255.658 310.240,255.202 310.642,252.809 309.405 C 250.053 307.979,249.103 303.861,250.908 301.159 C 252.550 298.701,255.223 297.963,257.726 299.275 " stroke="none" fill="#ffffff" fill-rule="evenodd"></path><path id="path1" d="M178.854 174.900 L 178.800 176.000 185.400 176.000 C 191.431 176.000,191.997 175.940,191.968 175.300 C 191.950 174.882,191.856 174.801,191.735 175.100 C 191.310 176.154,179.289 175.774,179.082 174.700 C 178.934 173.928,178.901 173.957,178.854 174.900 M180.078 193.098 C 182.431 193.169,186.391 193.169,188.878 193.099 C 191.365 193.029,189.440 192.971,184.600 192.970 C 179.760 192.970,177.725 193.028,180.078 193.098 M176.101 195.800 C 176.105 196.680,176.187 196.993,176.283 196.495 C 176.379 195.998,176.375 195.278,176.275 194.895 C 176.175 194.513,176.096 194.920,176.101 195.800 M192.901 195.800 C 192.905 196.680,192.987 196.993,193.083 196.495 C 193.179 195.998,193.175 195.278,193.075 194.895 C 192.975 194.513,192.896 194.920,192.901 195.800 M176.501 201.400 C 176.505 202.280,176.587 202.593,176.683 202.095 C 176.779 201.598,176.775 200.878,176.675 200.495 C 176.575 200.113,176.496 200.520,176.501 201.400 M192.501 201.400 C 192.505 202.280,192.587 202.593,192.683 202.095 C 192.779 201.598,192.775 200.878,192.675 200.495 C 192.575 200.113,192.496 200.520,192.501 201.400 M176.901 207.000 C 176.905 207.880,176.987 208.193,177.083 207.695 C 177.179 207.198,177.175 206.478,177.075 206.095 C 176.975 205.713,176.896 206.120,176.901 207.000 M192.101 207.000 C 192.105 207.880,192.187 208.193,192.283 207.695 C 192.379 207.198,192.375 206.478,192.275 206.095 C 192.175 205.713,192.096 206.120,192.101 207.000 M177.301 212.600 C 177.305 213.480,177.387 213.793,177.483 213.295 C 177.579 212.798,177.575 212.078,177.475 211.695 C 177.375 211.313,177.296 211.720,177.301 212.600 M191.701 212.600 C 191.705 213.480,191.787 213.793,191.883 213.295 C 191.979 212.798,191.975 212.078,191.875 211.695 C 191.775 211.313,191.696 211.720,191.701 212.600 M177.701 218.200 C 177.705 219.080,177.787 219.393,177.883 218.895 C 177.979 218.398,177.975 217.678,177.875 217.295 C 177.775 216.913,177.696 217.320,177.701 218.200 M191.293 218.400 C 191.293 219.170,191.375 219.485,191.476 219.100 C 191.576 218.715,191.576 218.085,191.476 217.700 C 191.375 217.315,191.293 217.630,191.293 218.400 M178.101 223.800 C 178.105 224.680,178.187 224.993,178.283 224.495 C 178.379 223.998,178.375 223.278,178.275 222.895 C 178.175 222.513,178.096 222.920,178.101 223.800 M190.893 224.000 C 190.893 224.770,190.975 225.085,191.076 224.700 C 191.176 224.315,191.176 223.685,191.076 223.300 C 190.975 222.915,190.893 223.230,190.893 224.000 M178.493 229.600 C 178.493 230.370,178.575 230.685,178.676 230.300 C 178.776 229.915,178.776 229.285,178.676 228.900 C 178.575 228.515,178.493 228.830,178.493 229.600 M190.493 229.600 C 190.493 230.370,190.575 230.685,190.676 230.300 C 190.776 229.915,190.776 229.285,190.676 228.900 C 190.575 228.515,190.493 228.830,190.493 229.600 M178.893 235.200 C 178.893 235.970,178.975 236.285,179.076 235.900 C 179.176 235.515,179.176 234.885,179.076 234.500 C 178.975 234.115,178.893 234.430,178.893 235.200 M190.101 235.400 C 190.105 236.280,190.187 236.593,190.283 236.095 C 190.379 235.598,190.375 234.878,190.275 234.495 C 190.175 234.113,190.096 234.520,190.101 235.400 M179.293 240.800 C 179.293 241.570,179.375 241.885,179.476 241.500 C 179.576 241.115,179.576 240.485,179.476 240.100 C 179.375 239.715,179.293 240.030,179.293 240.800 M189.701 241.000 C 189.705 241.880,189.787 242.193,189.883 241.695 C 189.979 241.198,189.975 240.478,189.875 240.095 C 189.775 239.713,189.696 240.120,189.701 241.000 " stroke="none" fill="#546239" fill-rule="evenodd"></path><path id="path2" d="M186.044 66.200 C 186.015 66.420,184.202 81.000,182.015 98.600 L 178.038 130.600 173.471 144.800 C 170.085 155.326,167.423 162.622,163.180 173.000 L 157.456 187.000 148.101 199.194 L 138.747 211.389 128.800 219.063 L 118.853 226.737 105.927 232.354 L 93.000 237.970 80.896 240.585 C 74.238 242.023,68.433 243.200,67.996 243.200 C 67.558 243.200,67.200 243.380,67.200 243.600 C 67.200 243.857,71.303 244.000,78.708 244.000 L 90.216 244.000 96.408 240.761 C 105.964 235.761,123.270 227.137,123.429 227.295 C 123.507 227.373,119.977 231.027,115.585 235.415 C 106.457 244.534,106.793 244.000,110.192 244.000 C 112.771 244.000,112.792 243.991,114.492 242.120 C 118.815 237.362,152.447 201.600,152.597 201.600 C 152.691 201.600,151.632 203.985,150.245 206.900 C 148.858 209.815,144.351 219.281,140.230 227.935 C 136.109 236.590,132.840 243.774,132.967 243.900 C 135.233 246.166,142.917 230.343,159.001 190.288 C 162.250 182.196,164.972 175.639,165.050 175.717 C 165.127 175.794,160.963 191.018,155.795 209.548 C 145.098 247.907,146.011 244.000,147.746 244.000 C 149.570 244.000,148.485 247.647,163.575 190.800 C 176.145 143.447,177.884 137.181,177.397 141.000 C 177.285 141.880,174.497 164.740,171.202 191.800 C 167.906 218.860,165.102 241.675,164.970 242.500 C 164.737 243.951,164.768 244.000,165.920 244.000 C 167.422 244.000,166.118 253.491,176.192 169.200 C 180.937 129.490,184.951 96.484,185.110 95.853 C 185.293 95.130,188.411 121.988,193.538 168.453 C 202.531 249.941,201.799 244.000,202.843 244.000 C 203.832 244.000,204.365 249.846,197.797 188.660 C 194.606 158.927,191.904 133.700,191.793 132.600 C 191.652 131.203,191.818 131.626,192.344 134.000 C 194.401 143.297,204.837 179.003,219.575 227.166 C 222.229 235.838,224.400 243.173,224.400 243.466 C 224.400 243.842,225.007 244.000,226.443 244.000 C 228.040 244.000,228.438 243.876,228.268 243.434 C 228.149 243.123,224.791 232.548,220.807 219.934 C 216.823 207.320,213.132 195.691,212.606 194.092 C 212.080 192.492,211.783 191.266,211.945 191.366 C 212.108 191.467,219.702 203.347,228.821 217.766 L 245.400 243.983 246.943 243.991 C 248.916 244.002,249.504 245.223,239.982 229.541 C 235.565 222.266,232.009 216.258,232.079 216.187 C 232.150 216.117,239.551 222.357,248.527 230.055 C 266.957 245.859,270.075 247.860,261.341 238.279 C 258.573 235.243,256.399 232.668,256.509 232.557 C 256.681 232.386,274.526 241.825,277.086 243.441 C 278.085 244.072,300.800 244.290,300.800 243.669 C 300.800 243.487,298.287 243.007,295.215 242.602 C 292.144 242.197,289.431 241.743,289.187 241.592 C 288.888 241.407,289.602 239.063,291.372 234.414 C 294.364 226.555,294.558 225.074,293.000 222.000 C 291.723 219.480,291.678 219.600,293.900 219.599 C 296.187 219.597,298.097 218.546,299.005 216.790 C 299.684 215.477,306.353 169.019,305.924 168.590 C 305.574 168.241,237.104 158.763,236.835 159.028 C 236.706 159.155,236.420 160.439,236.200 161.881 L 235.800 164.503 234.472 162.647 C 231.404 158.359,230.111 158.520,222.634 164.119 C 219.316 166.605,215.495 169.306,214.145 170.121 C 211.529 171.701,210.130 173.719,210.608 175.226 C 211.074 176.692,220.390 192.590,221.102 193.132 C 222.839 194.455,229.017 192.147,231.498 189.249 C 232.634 187.922,232.643 187.648,231.232 197.718 C 229.804 207.907,230.101 209.589,233.608 211.159 L 235.154 211.851 234.435 212.947 L 233.716 214.043 231.666 212.294 C 230.321 211.145,226.681 206.432,221.069 198.572 L 212.520 186.600 206.899 171.800 C 201.484 157.543,201.065 156.215,195.469 135.600 L 189.660 114.200 188.209 92.200 C 186.955 73.203,186.245 64.677,186.044 66.200 M254.100 118.265 C 253.188 118.633,253.579 120.396,255.600 125.039 C 258.025 130.608,258.047 129.965,255.382 131.358 C 246.688 135.901,237.629 148.261,237.604 155.617 L 237.600 156.634 270.700 160.553 C 288.905 162.708,304.565 164.570,305.500 164.690 L 307.200 164.909 307.200 162.683 C 307.200 153.283,303.681 144.603,297.125 137.833 C 295.213 135.859,293.761 134.054,293.897 133.822 C 294.033 133.590,295.461 131.680,297.072 129.578 C 300.509 125.092,300.998 122.382,298.175 123.465 C 297.699 123.648,293.060 129.364,291.156 132.114 C 291.022 132.308,289.634 131.823,288.071 131.036 C 280.980 127.465,270.973 126.280,263.681 128.148 C 262.076 128.559,260.713 128.829,260.654 128.748 C 260.594 128.666,259.682 126.620,258.627 124.200 C 255.900 117.945,255.662 117.634,254.100 118.265 M182.059 146.415 C 180.664 160.597,179.426 172.965,179.307 173.900 L 179.091 175.600 185.381 175.600 L 191.670 175.600 191.437 174.100 C 191.309 173.275,189.761 161.170,187.997 147.200 C 186.234 133.230,184.747 121.537,184.693 121.215 C 184.639 120.893,183.454 132.233,182.059 146.415 M259.231 140.769 C 262.282 143.820,258.741 148.638,254.905 146.654 C 253.498 145.927,252.603 144.038,252.971 142.573 C 253.716 139.603,257.092 138.630,259.231 140.769 M314.546 143.969 C 308.740 147.853,308.478 149.131,312.369 154.585 C 313.932 156.776,315.163 158.685,315.105 158.828 C 315.047 158.971,313.740 160.133,312.200 161.410 C 305.053 167.337,304.889 168.082,309.530 173.527 C 313.472 178.152,314.068 178.048,322.079 171.338 C 332.599 162.527,333.691 161.212,332.433 158.861 C 331.699 157.490,321.157 143.021,320.661 142.706 C 319.389 141.896,316.867 142.416,314.546 143.969 M291.802 144.566 C 293.831 146.595,293.356 149.235,290.731 150.518 C 288.076 151.816,285.600 150.122,285.600 147.008 C 285.600 143.909,289.578 142.342,291.802 144.566 M233.608 180.400 C 232.991 184.690,232.467 187.605,232.443 186.879 C 232.417 186.064,231.552 184.089,230.186 181.722 C 228.968 179.613,228.023 177.751,228.086 177.585 C 228.193 177.303,234.524 172.465,234.664 172.557 C 234.700 172.581,234.224 176.110,233.608 180.400 M177.245 185.691 C 177.056 186.191,176.775 187.185,176.619 187.900 L 176.336 189.200 184.568 189.200 C 189.096 189.200,192.797 189.065,192.794 188.900 C 192.791 188.735,192.546 187.790,192.250 186.800 L 191.712 185.000 184.650 184.891 C 177.626 184.782,177.585 184.786,177.245 185.691 M176.378 193.900 C 176.367 194.285,177.132 205.715,178.078 219.300 L 179.800 244.000 184.600 244.000 L 189.400 244.000 191.122 219.300 C 192.068 205.715,192.833 194.285,192.822 193.900 C 192.802 193.257,192.135 193.200,184.600 193.200 C 177.065 193.200,176.398 193.257,176.378 193.900 M272.103 216.785 C 272.269 216.793,273.406 218.915,274.630 221.500 L 276.854 226.200 275.027 231.055 C 272.967 236.531,272.873 237.180,274.002 238.202 C 274.444 238.602,274.743 238.990,274.668 239.065 C 274.491 239.243,248.038 226.255,247.046 225.503 C 246.329 224.959,246.465 224.665,249.798 219.550 L 253.304 214.169 262.552 215.470 C 267.638 216.185,271.936 216.777,272.103 216.785 M136.000 256.111 L 136.000 259.422 132.900 259.416 C 127.231 259.406,125.444 261.512,125.444 268.200 C 125.444 275.450,128.626 278.537,134.204 276.701 C 135.192 276.376,136.000 276.265,136.000 276.455 C 136.000 276.645,136.990 276.800,138.200 276.800 L 140.400 276.800 140.400 264.800 L 140.400 252.800 138.200 252.800 L 136.000 252.800 136.000 256.111 M175.200 255.000 L 175.200 257.200 177.200 257.200 L 179.200 257.200 179.200 255.000 L 179.200 252.800 177.200 252.800 L 175.200 252.800 175.200 255.000 M193.600 256.203 L 193.600 259.606 190.900 259.373 C 185.206 258.882,183.000 261.402,183.000 268.400 C 183.000 273.033,183.520 274.512,185.729 276.158 C 187.027 277.125,191.131 277.301,192.700 276.456 C 193.275 276.147,193.600 276.121,193.600 276.386 C 193.600 276.616,194.488 276.800,195.600 276.800 L 197.600 276.800 197.600 264.800 L 197.600 252.800 195.600 252.800 L 193.600 252.800 193.600 256.203 M151.300 260.186 C 149.283 261.124,149.200 261.132,149.200 260.382 C 149.200 259.710,148.918 259.600,147.200 259.600 L 145.200 259.600 145.200 268.200 L 145.200 276.800 147.200 276.800 L 149.200 276.800 149.200 271.056 L 149.200 265.312 151.700 264.494 L 154.200 263.676 154.320 261.438 C 154.460 258.824,154.336 258.772,151.300 260.186 M160.600 259.801 C 153.586 262.281,154.716 275.769,162.041 277.007 C 168.891 278.164,172.855 272.970,171.201 265.005 C 170.215 260.255,165.652 258.015,160.600 259.801 M205.977 259.579 C 202.620 260.598,201.491 262.767,201.491 268.200 C 201.491 274.912,203.248 277.016,208.807 276.962 C 213.906 276.913,214.505 276.522,213.756 273.731 C 213.541 272.929,213.292 272.867,210.576 272.931 C 206.475 273.027,205.800 272.358,205.800 268.201 C 205.800 264.045,206.477 263.373,210.568 263.469 L 213.508 263.538 213.767 261.916 C 213.910 261.023,213.932 260.199,213.817 260.084 C 213.138 259.405,207.704 259.055,205.977 259.579 M220.696 259.772 C 216.594 261.236,214.799 268.064,217.130 273.336 C 219.571 278.854,229.481 278.256,231.094 272.493 C 233.537 263.764,228.111 257.126,220.696 259.772 M241.600 259.569 C 241.050 259.728,239.385 259.776,237.900 259.675 L 235.200 259.493 235.200 268.146 L 235.200 276.800 237.390 276.800 L 239.580 276.800 239.690 270.300 L 239.800 263.800 241.718 263.430 C 245.010 262.794,245.370 263.489,245.537 270.810 L 245.673 276.800 247.637 276.800 L 249.600 276.800 249.591 270.300 C 249.578 260.436,247.633 257.824,241.600 259.569 M175.200 268.200 L 175.200 276.800 177.200 276.800 L 179.200 276.800 179.200 268.200 L 179.200 259.600 177.200 259.600 L 175.200 259.600 175.200 268.200 M135.800 267.982 L 135.800 272.564 134.200 272.898 C 131.020 273.563,129.600 272.125,129.600 268.239 C 129.600 264.472,130.759 263.104,133.800 263.283 L 135.800 263.400 135.800 267.982 M165.584 263.592 C 167.828 264.793,167.671 272.073,165.382 272.952 C 163.545 273.657,161.776 273.101,160.985 271.571 C 159.809 269.297,160.519 264.101,162.092 263.468 C 162.964 263.117,164.820 263.182,165.584 263.592 M193.513 267.881 L 193.626 272.362 191.913 272.823 C 188.411 273.766,187.097 272.296,187.294 267.657 C 187.453 263.930,188.227 263.098,191.367 263.281 L 193.400 263.400 193.513 267.881 M226.056 263.965 C 228.641 266.058,226.996 273.200,223.929 273.200 C 221.502 273.200,220.400 271.628,220.400 268.166 C 220.400 263.872,223.290 261.725,226.056 263.965 " stroke="none" fill="#8ec81f" fill-rule="evenodd"></path><path id="path3" d="" stroke="none" fill="#aad657" fill-rule="evenodd"></path><path id="path4" d="" stroke="none" fill="#c7e48f" fill-rule="evenodd"></path><path id="path5" d="" stroke="none" fill="#e3f1c7" fill-rule="evenodd"></path><path id="path6" d="M185.029 95.829 C 184.881 96.415,184.851 96.984,184.961 97.094 C 185.071 97.204,185.281 96.815,185.429 96.229 C 185.576 95.642,185.606 95.073,185.496 94.963 C 185.386 94.853,185.176 95.242,185.029 95.829 M191.656 132.400 C 191.656 132.730,191.811 133.360,192.000 133.800 C 192.217 134.304,192.344 134.378,192.344 134.000 C 192.344 133.670,192.189 133.040,192.000 132.600 C 191.783 132.096,191.656 132.022,191.656 132.400 M192.000 135.600 C 192.000 136.347,192.107 136.453,192.480 136.080 C 192.853 135.707,192.853 135.493,192.480 135.120 C 192.107 134.747,192.000 134.853,192.000 135.600 M177.079 140.157 C 176.915 140.574,176.875 141.009,176.991 141.124 C 177.355 141.489,177.676 140.891,177.524 140.131 C 177.383 139.435,177.362 139.436,177.079 140.157 M176.000 189.300 C 176.000 189.465,179.870 189.600,184.600 189.600 C 189.330 189.600,193.200 189.465,193.200 189.300 C 193.200 189.135,189.330 189.000,184.600 189.000 C 179.870 189.000,176.000 189.135,176.000 189.300 M147.781 206.500 L 146.200 208.200 147.900 206.619 C 149.481 205.148,149.784 204.800,149.481 204.800 C 149.416 204.800,148.651 205.565,147.781 206.500 M141.781 212.900 L 140.200 214.600 141.900 213.019 C 143.481 211.548,143.784 211.200,143.481 211.200 C 143.416 211.200,142.651 211.965,141.781 212.900 M135.781 219.300 L 134.200 221.000 135.900 219.419 C 137.481 217.948,137.784 217.600,137.481 217.600 C 137.416 217.600,136.651 218.365,135.781 219.300 M129.781 225.700 L 128.200 227.400 129.900 225.819 C 131.481 224.348,131.784 224.000,131.481 224.000 C 131.416 224.000,130.651 224.765,129.781 225.700 M122.800 227.624 C 122.800 227.857,122.575 227.918,122.300 227.759 C 122.025 227.601,121.938 227.624,122.107 227.810 C 122.276 227.995,121.836 228.744,121.129 229.474 C 120.422 230.203,119.931 230.800,120.038 230.800 C 120.146 230.800,121.028 229.990,122.000 229.000 C 122.972 228.010,123.549 227.200,123.283 227.200 C 123.017 227.200,122.800 227.391,122.800 227.624 M123.781 232.100 L 122.200 233.800 123.900 232.219 C 124.835 231.349,125.600 230.584,125.600 230.519 C 125.600 230.216,125.252 230.519,123.781 232.100 M117.781 238.500 L 116.200 240.200 117.900 238.619 C 119.481 237.148,119.784 236.800,119.481 236.800 C 119.416 236.800,118.651 237.565,117.781 238.500 " stroke="none" fill="#55ac32" fill-rule="evenodd"></path><path id="path7" d="M185.000 98.000 C 184.848 98.691,184.814 99.347,184.924 99.457 C 185.034 99.567,185.248 99.091,185.400 98.400 C 185.552 97.709,185.586 97.053,185.476 96.943 C 185.366 96.833,185.152 97.309,185.000 98.000 M192.400 137.133 C 192.400 137.830,192.583 138.400,192.808 138.400 C 193.050 138.400,193.108 137.953,192.951 137.300 C 192.575 135.730,192.400 135.677,192.400 137.133 M193.049 139.815 C 192.912 140.173,192.818 140.856,192.841 141.333 C 192.867 141.881,193.003 141.686,193.210 140.803 C 193.560 139.316,193.465 138.733,193.049 139.815 M176.028 144.276 C 176.118 145.315,176.744 146.196,176.772 145.324 C 176.787 144.842,176.620 144.336,176.400 144.200 C 176.180 144.064,176.013 144.098,176.028 144.276 M147.381 207.300 L 145.800 209.000 147.500 207.419 C 149.081 205.948,149.384 205.600,149.081 205.600 C 149.016 205.600,148.251 206.365,147.381 207.300 M141.381 213.700 L 139.800 215.400 141.500 213.819 C 143.081 212.348,143.384 212.000,143.081 212.000 C 143.016 212.000,142.251 212.765,141.381 213.700 M233.134 217.551 C 233.428 217.737,233.698 218.045,233.734 218.236 C 233.770 218.427,234.041 218.618,234.335 218.661 C 234.706 218.715,234.657 218.505,234.173 217.970 C 233.789 217.546,233.279 217.203,233.038 217.206 C 232.794 217.210,232.836 217.362,233.134 217.551 M135.381 220.100 L 133.800 221.800 135.500 220.219 C 137.081 218.748,137.384 218.400,137.081 218.400 C 137.016 218.400,136.251 219.165,135.381 220.100 M129.381 226.500 L 127.800 228.200 129.500 226.619 C 131.081 225.148,131.384 224.800,131.081 224.800 C 131.016 224.800,130.251 225.565,129.381 226.500 M123.381 232.900 L 121.800 234.600 123.500 233.019 C 125.081 231.548,125.384 231.200,125.081 231.200 C 125.016 231.200,124.251 231.965,123.381 232.900 M117.381 239.300 L 115.800 241.000 117.500 239.419 C 119.081 237.948,119.384 237.600,119.081 237.600 C 119.016 237.600,118.251 238.365,117.381 239.300 M201.200 242.189 L 201.200 243.179 195.300 243.301 L 189.400 243.423 195.500 243.512 L 201.600 243.600 201.600 242.400 C 201.600 241.740,201.510 241.200,201.400 241.200 C 201.290 241.200,201.200 241.645,201.200 242.189 M146.000 242.733 C 146.000 243.062,144.374 243.226,140.500 243.287 L 135.000 243.375 140.368 243.499 C 145.340 243.615,147.068 243.334,146.273 242.540 C 146.123 242.390,146.000 242.477,146.000 242.733 M164.400 242.817 C 164.400 243.096,161.943 243.195,157.000 243.117 C 152.929 243.053,149.599 243.135,149.600 243.300 C 149.600 243.465,153.020 243.600,157.200 243.600 C 163.689 243.600,164.800 243.512,164.800 243.000 C 164.800 242.670,164.710 242.400,164.600 242.400 C 164.490 242.400,164.400 242.588,164.400 242.817 M248.349 242.900 C 248.842 243.528,249.663 243.591,256.349 243.510 L 263.800 243.419 256.430 243.300 C 251.381 243.219,248.861 243.027,248.430 242.691 C 247.874 242.258,247.865 242.282,248.349 242.900 M92.137 243.300 C 92.036 243.465,95.428 243.565,99.676 243.522 C 107.394 243.443,106.573 243.302,97.261 243.105 C 94.544 243.047,92.239 243.135,92.137 243.300 M123.000 243.200 L 113.400 243.422 122.876 243.511 C 128.861 243.567,132.444 243.453,132.600 243.200 C 132.736 242.980,132.792 242.840,132.724 242.889 C 132.656 242.938,128.280 243.078,123.000 243.200 M214.000 243.200 L 203.800 243.421 214.100 243.510 C 220.760 243.568,224.400 243.459,224.400 243.200 C 224.400 242.980,224.355 242.840,224.300 242.890 C 224.245 242.939,219.610 243.079,214.000 243.200 M271.406 243.114 C 268.989 243.177,266.882 243.357,266.724 243.514 C 266.469 243.767,270.452 243.757,275.000 243.493 C 278.367 243.297,275.593 243.005,271.406 243.114 M170.500 243.497 C 172.205 243.572,174.995 243.572,176.700 243.497 C 178.405 243.422,177.010 243.361,173.600 243.361 C 170.190 243.361,168.795 243.422,170.500 243.497 M232.522 243.499 C 234.899 243.570,238.679 243.569,240.922 243.498 C 243.165 243.427,241.220 243.369,236.600 243.369 C 231.980 243.370,230.145 243.428,232.522 243.499 " stroke="none" fill="#2e6843" fill-rule="evenodd"></path><path id="path8" d="M150.778 203.500 L 149.400 205.000 150.900 203.622 C 151.725 202.863,152.400 202.188,152.400 202.122 C 152.400 201.816,152.062 202.104,150.778 203.500 M144.575 210.100 L 143.400 211.400 144.700 210.225 C 145.912 209.130,146.184 208.800,145.875 208.800 C 145.806 208.800,145.221 209.385,144.575 210.100 M138.575 216.500 L 137.400 217.800 138.700 216.625 C 139.912 215.530,140.184 215.200,139.875 215.200 C 139.806 215.200,139.221 215.785,138.575 216.500 M132.575 222.900 L 131.400 224.200 132.700 223.025 C 133.912 221.930,134.184 221.600,133.875 221.600 C 133.806 221.600,133.221 222.185,132.575 222.900 M126.575 229.300 L 125.400 230.600 126.700 229.425 C 127.912 228.330,128.184 228.000,127.875 228.000 C 127.806 228.000,127.221 228.585,126.575 229.300 M113.395 237.210 L 107.000 243.621 99.064 243.580 C 94.699 243.557,91.024 243.643,90.897 243.769 C 90.770 243.896,94.344 244.000,98.838 244.000 L 107.009 244.000 113.600 237.400 C 117.225 233.770,120.101 230.800,119.991 230.800 C 119.881 230.800,116.913 233.685,113.395 237.210 M120.575 235.700 L 119.400 237.000 120.700 235.825 C 121.912 234.730,122.184 234.400,121.875 234.400 C 121.806 234.400,121.221 234.985,120.575 235.700 M114.575 242.100 L 113.400 243.400 114.700 242.225 C 115.912 241.130,116.184 240.800,115.875 240.800 C 115.806 240.800,115.221 241.385,114.575 242.100 M203.703 243.200 C 203.843 243.713,205.364 243.802,214.233 243.811 L 224.600 243.821 214.419 243.704 C 206.922 243.617,204.146 243.456,203.889 243.093 C 203.634 242.734,203.584 242.763,203.703 243.200 M263.357 243.117 C 263.608 243.534,262.195 243.611,256.053 243.517 C 251.865 243.453,248.578 243.539,248.748 243.709 C 248.918 243.879,252.538 243.969,256.791 243.909 C 263.737 243.811,264.449 243.739,263.785 243.200 C 263.315 242.818,263.160 242.788,263.357 243.117 M122.800 243.600 L 113.000 243.821 122.900 243.911 C 129.293 243.968,132.800 243.858,132.800 243.600 C 132.800 243.380,132.755 243.240,132.700 243.289 C 132.645 243.338,128.190 243.478,122.800 243.600 M271.600 243.600 L 266.600 243.838 271.924 243.919 C 275.391 243.972,277.161 243.861,277.000 243.600 C 276.864 243.380,276.718 243.236,276.676 243.281 C 276.634 243.326,274.350 243.469,271.600 243.600 M136.900 243.897 C 138.605 243.972,141.395 243.972,143.100 243.897 C 144.805 243.822,143.410 243.761,140.000 243.761 C 136.590 243.761,135.195 243.822,136.900 243.897 M153.121 243.899 C 155.388 243.970,158.988 243.970,161.121 243.898 C 163.255 243.826,161.400 243.768,157.000 243.768 C 152.600 243.768,150.855 243.827,153.121 243.899 M170.319 243.898 C 172.144 243.972,175.024 243.972,176.719 243.897 C 178.414 243.822,176.920 243.761,173.400 243.762 C 169.880 243.762,168.494 243.824,170.319 243.898 M192.500 243.897 C 194.205 243.972,196.995 243.972,198.700 243.897 C 200.405 243.822,199.010 243.761,195.600 243.761 C 192.190 243.761,190.795 243.822,192.500 243.897 M232.500 243.898 C 234.865 243.969,238.735 243.969,241.100 243.898 C 243.465 243.828,241.530 243.770,236.800 243.770 C 232.070 243.770,230.135 243.828,232.500 243.898 " stroke="none" fill="#1b8f42" fill-rule="evenodd"></path><path id="path9" d="M185.052 99.600 C 184.906 100.370,181.015 132.500,176.405 171.000 C 171.795 209.500,167.933 241.495,167.822 242.100 L 167.620 243.200 173.591 243.200 L 179.562 243.200 179.366 241.300 C 179.110 238.824,176.000 194.826,176.000 193.679 C 176.000 192.801,176.010 192.800,184.600 192.800 C 193.057 192.800,193.200 192.814,193.200 193.636 C 193.200 194.578,190.109 238.861,189.859 241.500 L 189.698 243.200 195.501 243.200 L 201.303 243.200 201.028 240.100 C 199.804 226.291,185.268 98.462,185.052 99.600 M188.199 146.638 C 190.063 161.357,191.689 173.985,191.812 174.700 L 192.036 176.000 185.381 176.000 L 178.725 176.000 178.968 174.100 C 179.217 172.150,184.400 120.308,184.400 119.767 C 184.400 119.602,184.492 119.559,184.605 119.671 C 184.717 119.784,186.335 131.919,188.199 146.638 M193.024 140.000 C 193.129 140.990,195.642 164.493,198.608 192.230 C 201.573 219.966,204.000 242.781,204.000 242.930 C 204.000 243.078,208.512 243.200,214.027 243.200 C 223.393 243.200,224.039 243.154,223.834 242.500 C 215.844 217.007,198.576 159.000,193.441 140.400 L 192.833 138.200 193.024 140.000 M163.277 193.323 C 156.170 219.985,150.254 242.115,150.131 242.500 C 149.923 243.149,150.433 243.200,157.146 243.200 C 164.328 243.200,164.386 243.193,164.583 242.300 C 164.950 240.626,176.446 145.538,176.323 145.191 C 176.255 145.001,170.385 166.661,163.277 193.323 M160.832 186.930 C 151.171 211.446,139.926 236.918,136.651 241.700 L 135.624 243.200 140.784 243.200 L 145.943 243.200 146.550 241.100 C 149.479 230.966,162.822 182.689,162.722 182.589 C 162.651 182.518,161.800 184.471,160.832 186.930 M192.572 186.962 C 192.917 188.150,193.200 189.230,193.200 189.362 C 193.200 189.493,189.330 189.600,184.600 189.600 C 179.870 189.600,176.000 189.453,176.000 189.273 C 176.000 189.093,176.277 188.013,176.615 186.873 L 177.231 184.800 184.587 184.800 L 191.943 184.800 192.572 186.962 M214.608 199.040 C 215.581 202.098,219.122 213.285,222.478 223.900 L 228.581 243.200 236.536 243.200 L 244.492 243.200 243.907 242.300 C 243.586 241.805,236.608 230.780,228.402 217.800 C 220.196 204.820,213.337 194.038,213.161 193.840 C 212.985 193.642,213.636 195.982,214.608 199.040 M136.147 219.506 C 127.758 228.468,119.323 237.468,117.403 239.507 L 113.911 243.215 123.242 243.107 L 132.572 243.000 138.786 229.973 C 150.624 205.157,151.552 203.200,151.476 203.206 C 151.434 203.209,144.536 210.544,136.147 219.506 M239.909 228.642 C 243.654 234.826,247.188 240.631,247.764 241.542 L 248.810 243.200 256.033 243.200 L 263.256 243.200 248.928 230.939 C 241.048 224.195,234.263 218.390,233.850 218.039 C 233.438 217.687,236.165 222.459,239.909 228.642 M107.000 235.818 L 92.600 243.186 100.004 243.193 L 107.408 243.200 114.800 235.800 C 118.866 231.730,122.014 228.411,121.796 228.426 C 121.578 228.440,114.920 231.766,107.000 235.818 M258.785 235.147 C 259.875 236.386,262.079 238.752,263.683 240.406 L 266.600 243.411 271.071 243.206 L 275.543 243.000 266.173 237.947 L 256.803 232.894 258.785 235.147 " stroke="none" fill="#404041" fill-rule="evenodd"></path></g></svg>